# This file uses centimeters as units for non-parametric coordinates.

mtllib SandHill1.mtl
g default
v -2.178705 -0.159899 1.828336
v -0.336320 -0.159899 2.170285
v -0.112107 -0.159899 2.170285
v 0.112107 -0.159899 2.170285
v 1.347255 -0.159899 1.751171
v 1.514740 -0.159899 1.602106
v -2.137371 -0.012246 1.797700
v -0.329224 0.064570 2.120214
v -0.109741 0.064570 2.120214
v 0.109741 0.064570 2.120214
v 1.308666 -0.039155 1.718486
v 1.472616 -0.039155 1.572567
v -1.823339 0.131445 1.486834
v -0.306174 0.208261 1.680105
v -0.103116 0.208261 1.680105
v 0.099941 0.208261 1.680105
v 0.996476 0.208261 1.407165
v 1.148157 0.208261 1.272166
v -1.121276 0.246116 0.670551
v -0.317052 0.322931 0.603486
v -0.134892 0.496607 0.821171
v 0.047268 0.496607 0.821171
v 0.229429 0.496607 0.605481
v 0.411589 0.496607 0.605481
v -0.557609 0.617228 0.294506
v -0.156565 0.694043 -0.047443
v -0.002123 0.694043 -0.047443
v 0.152319 0.694043 -0.047443
v 0.306761 0.694043 -0.047443
v 0.461203 0.694043 -0.047443
v -0.044428 0.838308 -0.506715
v 0.046200 0.888528 -0.559600
v 0.136828 0.888528 -0.559600
v 0.227456 0.888528 -0.559600
v 0.318084 0.888528 -0.559600
v 0.408712 0.832142 -0.559600
v -0.044428 0.838308 -0.597343
v 0.046200 0.888528 -0.650228
v 0.136828 0.888528 -0.650228
v 0.227456 0.888528 -0.650228
v 0.318084 0.888528 -0.650228
v 0.408712 0.832142 -0.650228
v -0.205608 0.723653 -0.566768
v 0.046200 0.940310 -0.740856
v 0.136828 0.940310 -0.740856
v 0.227456 0.940310 -0.740856
v 0.318084 0.888528 -0.740856
v 0.488428 0.832142 -0.740856
v -0.205608 0.723653 -0.657396
v 0.046200 0.940310 -0.831484
v 0.136828 0.940310 -0.831484
v 0.227456 0.940310 -0.831484
v 0.318084 0.888528 -0.831484
v 0.488428 0.832142 -0.831484
v -0.205608 0.723653 -0.748024
v 0.046200 0.888528 -0.922112
v 0.136828 0.888528 -0.922112
v 0.227456 0.888528 -0.922112
v 0.318084 0.888528 -0.922112
v 0.408712 0.832142 -0.922112
v -0.044428 0.798820 -1.113249
v 0.046200 0.798820 -1.113249
v 0.136828 0.798820 -1.113249
v 0.227456 0.834350 -1.012740
v 0.318084 0.834350 -1.012741
v 0.408712 0.832142 -1.012741
v -0.357751 0.731439 -1.654453
v -0.184611 0.627714 -1.654453
v -0.011472 0.627714 -1.654453
v 0.161668 0.731439 -1.654453
v 0.392665 0.602011 -1.294124
v 0.527779 0.602011 -1.185859
v -0.611572 0.496607 -1.720853
v -0.429412 0.496607 -1.720853
v 0.001466 0.496607 -1.868268
v 0.183626 0.496607 -1.868268
v 0.746939 0.430650 -1.731032
v 0.929099 0.496607 -1.731032
v -0.509231 0.208261 -2.365902
v -0.306174 0.208261 -2.365902
v -0.103116 0.208261 -2.365902
v 0.099941 0.208261 -2.365902
v 0.859970 0.208261 -1.970738
v 1.037692 0.208261 -1.872517
v -0.548706 0.064570 -2.525823
v -0.329224 0.064570 -2.525823
v -0.109741 0.064570 -2.525823
v 0.109741 0.064570 -2.525823
v 0.960279 0.064570 -2.098020
v 1.152376 0.064570 -1.991855
v -0.560533 -0.159899 -2.575895
v -0.336320 -0.159899 -2.575895
v -0.112107 -0.159899 -2.575895
v 0.112107 -0.159899 -2.575895
v 0.990710 -0.159899 -2.138412
v 1.186948 -0.159899 -2.029958
v -1.839817 -0.192804 -1.429104
v -1.129912 -0.192804 -0.610421
v -0.376637 -0.192804 -0.610421
v 0.376637 -0.111472 -0.610421
v 1.129912 -0.111472 -0.610421
v 1.883186 -0.111472 -0.610421
v -1.883186 -0.192804 -0.410421
v -1.129912 -0.192804 -0.410421
v -0.296921 -0.192804 -0.410421
v 0.376637 -0.111472 -0.410421
v 1.129912 -0.111472 -0.410421
v 1.883186 -0.111472 -0.410421
v -1.883186 -0.111472 -0.210421
v -1.129912 -0.111472 -0.210421
v -0.376637 -0.192804 -0.210421
v 0.376637 -0.111472 -0.210421
v 1.129912 -0.111472 -0.210421
v 1.883186 -0.111472 -0.210421
v -1.883186 -0.111472 -0.010421
v -1.129912 -0.111472 -0.010421
v -0.376637 -0.111472 -0.010421
v 0.376637 -0.111472 -0.010421
v 1.129912 -0.111472 -0.010421
v 1.883186 -0.111472 -0.010421
v 1.843450 0.088272 -0.601820
v 1.843450 0.006940 -0.406040
v 1.843450 0.006940 -0.210260
v 1.843450 0.088272 -0.014480
v 1.703905 0.208261 -0.585886
v 1.703905 0.208261 -0.404757
v 1.703905 0.208261 -0.223629
v 1.703905 0.208261 -0.042500
v 0.947280 0.476935 -0.566782
v 0.947280 0.476935 -0.404293
v 1.151588 0.476935 -0.192860
v 0.710653 0.476935 0.224337
v 0.925584 0.620657 -0.665211
v 1.017111 0.630281 -0.510769
v 1.017111 0.645517 -0.356327
v 0.461203 0.694043 -0.201886
v -1.805577 0.006940 -1.407183
v -1.843450 0.006940 -0.406040
v -1.843450 0.088272 -0.210260
v -1.843450 0.088272 -0.014480
v -1.683330 0.208261 -1.344683
v -1.707081 0.208261 -0.404757
v -1.707081 0.208261 -0.223629
v -1.707081 0.208261 -0.042500
v -1.565073 0.476935 -1.280286
v -1.573788 0.393889 -0.404293
v -1.573788 0.393889 -0.241805
v -1.573788 0.476935 -0.079317
v -0.347267 0.694043 -0.932067
v -0.311007 0.694043 -0.510769
v -0.311007 0.694043 -0.356327
v -0.311007 0.694043 -0.201885
vt 0.375000 0.000000
vt 0.425000 0.000000
vt 0.475000 0.000000
vt 0.525000 0.000000
vt 0.575000 0.000000
vt 0.625000 0.000000
vt 0.375000 0.050000
vt 0.425000 0.050000
vt 0.475000 0.050000
vt 0.525000 0.050000
vt 0.575000 0.050000
vt 0.625000 0.050000
vt 0.375000 0.100000
vt 0.425000 0.100000
vt 0.475000 0.100000
vt 0.525000 0.100000
vt 0.575000 0.100000
vt 0.625000 0.100000
vt 0.375000 0.150000
vt 0.425000 0.150000
vt 0.475000 0.150000
vt 0.525000 0.150000
vt 0.575000 0.150000
vt 0.625000 0.150000
vt 0.375000 0.200000
vt 0.425000 0.200000
vt 0.475000 0.200000
vt 0.525000 0.200000
vt 0.575000 0.200000
vt 0.625000 0.200000
vt 0.375000 0.250000
vt 0.425000 0.250000
vt 0.475000 0.250000
vt 0.525000 0.250000
vt 0.575000 0.250000
vt 0.625000 0.250000
vt 0.375000 0.300000
vt 0.425000 0.300000
vt 0.475000 0.300000
vt 0.525000 0.300000
vt 0.575000 0.300000
vt 0.625000 0.300000
vt 0.375000 0.350000
vt 0.425000 0.350000
vt 0.475000 0.350000
vt 0.525000 0.350000
vt 0.575000 0.350000
vt 0.625000 0.350000
vt 0.375000 0.400000
vt 0.425000 0.400000
vt 0.475000 0.400000
vt 0.525000 0.400000
vt 0.575000 0.400000
vt 0.625000 0.400000
vt 0.375000 0.450000
vt 0.425000 0.450000
vt 0.475000 0.450000
vt 0.525000 0.450000
vt 0.575000 0.450000
vt 0.625000 0.450000
vt 0.375000 0.500000
vt 0.425000 0.500000
vt 0.475000 0.500000
vt 0.525000 0.500000
vt 0.575000 0.500000
vt 0.625000 0.500000
vt 0.375000 0.550000
vt 0.425000 0.550000
vt 0.475000 0.550000
vt 0.525000 0.550000
vt 0.575000 0.550000
vt 0.625000 0.550000
vt 0.375000 0.600000
vt 0.425000 0.600000
vt 0.475000 0.600000
vt 0.525000 0.600000
vt 0.575000 0.600000
vt 0.625000 0.600000
vt 0.375000 0.650000
vt 0.425000 0.650000
vt 0.475000 0.650000
vt 0.525000 0.650000
vt 0.575000 0.650000
vt 0.625000 0.650000
vt 0.375000 0.700000
vt 0.425000 0.700000
vt 0.475000 0.700000
vt 0.525000 0.700000
vt 0.575000 0.700000
vt 0.625000 0.700000
vt 0.375000 0.750000
vt 0.425000 0.750000
vt 0.475000 0.750000
vt 0.525000 0.750000
vt 0.575000 0.750000
vt 0.625000 0.750000
vt 0.375000 0.800000
vt 0.425000 0.800000
vt 0.475000 0.800000
vt 0.525000 0.800000
vt 0.575000 0.800000
vt 0.625000 0.800000
vt 0.375000 0.850000
vt 0.425000 0.850000
vt 0.475000 0.850000
vt 0.525000 0.850000
vt 0.575000 0.850000
vt 0.625000 0.850000
vt 0.375000 0.900000
vt 0.425000 0.900000
vt 0.475000 0.900000
vt 0.525000 0.900000
vt 0.575000 0.900000
vt 0.625000 0.900000
vt 0.375000 0.950000
vt 0.425000 0.950000
vt 0.475000 0.950000
vt 0.525000 0.950000
vt 0.575000 0.950000
vt 0.625000 0.950000
vt 0.375000 1.000000
vt 0.425000 1.000000
vt 0.475000 1.000000
vt 0.525000 1.000000
vt 0.575000 1.000000
vt 0.625000 1.000000
vt 0.875000 0.000000
vt 0.825000 0.000000
vt 0.775000 0.000000
vt 0.725000 0.000000
vt 0.675000 0.000000
vt 0.875000 0.050000
vt 0.825000 0.050000
vt 0.775000 0.050000
vt 0.725000 0.050000
vt 0.675000 0.050000
vt 0.875000 0.100000
vt 0.825000 0.100000
vt 0.775000 0.100000
vt 0.725000 0.100000
vt 0.675000 0.100000
vt 0.875000 0.150000
vt 0.825000 0.150000
vt 0.775000 0.150000
vt 0.725000 0.150000
vt 0.675000 0.150000
vt 0.875000 0.200000
vt 0.825000 0.200000
vt 0.775000 0.200000
vt 0.725000 0.200000
vt 0.675000 0.200000
vt 0.875000 0.250000
vt 0.825000 0.250000
vt 0.775000 0.250000
vt 0.725000 0.250000
vt 0.675000 0.250000
vt 0.125000 0.000000
vt 0.175000 0.000000
vt 0.225000 0.000000
vt 0.275000 0.000000
vt 0.325000 0.000000
vt 0.125000 0.050000
vt 0.175000 0.050000
vt 0.225000 0.050000
vt 0.275000 0.050000
vt 0.325000 0.050000
vt 0.125000 0.100000
vt 0.175000 0.100000
vt 0.225000 0.100000
vt 0.275000 0.100000
vt 0.325000 0.100000
vt 0.125000 0.150000
vt 0.175000 0.150000
vt 0.225000 0.150000
vt 0.275000 0.150000
vt 0.325000 0.150000
vt 0.125000 0.200000
vt 0.175000 0.200000
vt 0.225000 0.200000
vt 0.275000 0.200000
vt 0.325000 0.200000
vt 0.125000 0.250000
vt 0.175000 0.250000
vt 0.225000 0.250000
vt 0.275000 0.250000
vt 0.325000 0.250000
vn -0.178941 0.230722 0.956424
vn -0.156956 0.229512 0.960567
vn -0.120548 0.785069 0.607565
vn -0.153549 0.680931 0.716070
vn 0.000000 0.217716 0.976012
vn 0.000000 0.792306 0.610123
vn 0.261176 0.251342 0.931995
vn 0.200843 0.749406 0.630914
vn 0.360355 0.275463 0.891215
vn 0.287010 0.712739 0.640022
vn 0.614125 0.383059 0.690012
vn 0.408881 0.788518 0.459407
vn -0.120756 0.973039 0.196504
vn -0.084406 0.970134 0.227412
vn -0.182653 0.943285 0.277220
vn 0.120042 0.934508 0.335089
vn 0.160458 0.927274 0.338254
vn 0.196287 0.930780 0.308415
vn -0.120860 0.963421 0.239193
vn -0.058798 0.989433 0.132534
vn -0.301410 0.923920 0.235635
vn 0.090987 0.958037 0.271821
vn 0.117533 0.955106 0.271954
vn 0.074742 0.958944 0.273568
vn -0.185327 0.909178 0.372892
vn 0.114427 0.771596 0.625737
vn -0.199328 0.943985 0.262983
vn 0.056517 0.957794 0.281843
vn 0.091589 0.950604 0.296587
vn 0.078815 0.952970 0.292638
vn -0.002283 0.941410 0.337258
vn -0.007270 0.954521 0.298057
vn 0.000000 0.934865 0.355002
vn 0.000000 0.934866 0.355002
vn 0.102539 0.939110 0.327960
vn 0.214325 0.931517 0.293839
vn -0.484687 0.874688 0.000000
vn -0.298926 0.954276 0.000000
vn -0.300521 0.916018 0.265705
vn -0.460863 0.857855 0.227356
vn 0.000000 1.000000 0.000000
vn 0.000000 0.961531 0.274696
vn 0.000000 1.000000 0.000000
vn 0.069667 0.975431 0.209000
vn 0.297044 0.954864 0.000000
vn 0.323525 0.938799 0.118268
vn 0.528270 0.849076 0.000000
vn 0.441366 0.890245 0.112519
vn -0.479371 0.869237 0.120954
vn -0.626952 0.777584 0.047910
vn 0.000000 0.961531 0.274696
vn 0.202473 0.958128 0.202473
vn 0.365670 0.925642 0.097328
vn 0.339626 0.939001 0.054142
vn -0.538357 0.825368 -0.170116
vn -0.664352 0.743788 -0.073595
vn 0.000000 0.961531 -0.274696
vn 0.202473 0.958128 -0.202473
vn 0.365670 0.925642 -0.097328
vn 0.339626 0.939001 -0.054142
vn -0.432629 0.863843 -0.258084
vn -0.626053 0.755636 -0.192539
vn 0.021245 0.888209 -0.458949
vn 0.082631 0.893599 -0.441195
vn 0.253087 0.918948 -0.302460
vn 0.360012 0.909898 -0.206100
vn -0.364987 0.897346 -0.248100
vn -0.494923 0.852996 -0.165676
vn 0.019638 0.901466 -0.432405
vn 0.054056 0.879950 -0.471981
vn 0.146507 0.902837 -0.404254
vn 0.295862 0.915221 -0.273561
vn 0.341064 0.867314 -0.362550
vn 0.138408 0.933438 -0.330964
vn 0.065325 0.837358 -0.542738
vn 0.240783 0.646355 -0.724050
vn -0.298497 0.935637 -0.188367
vn -0.184166 0.884629 -0.428386
vn 0.404959 0.875798 -0.262652
vn 0.199884 0.924372 -0.324936
vn 0.539269 0.761620 -0.359337
vn 0.347955 0.874646 -0.337522
vn 0.301543 0.729551 -0.613862
vn 0.033194 0.903635 -0.427015
vn -0.036351 0.813527 -0.580389
vn 0.012071 0.852855 -0.522009
vn -0.094362 0.855703 -0.508791
vn 0.235900 0.840310 -0.488089
vn 0.213383 0.847993 -0.485156
vn 0.003814 0.823031 -0.567984
vn -0.054331 0.871523 -0.487335
vn 0.000000 0.877987 -0.478685
vn -0.057386 0.856456 -0.513020
vn 0.208264 0.790252 -0.576305
vn 0.265917 0.758970 -0.594350
vn 0.203554 0.686580 -0.697978
vn 0.000000 0.488667 -0.872470
vn 0.000000 0.467116 -0.884196
vn 0.000000 0.488667 -0.872470
vn 0.330175 0.449424 -0.830062
vn 0.404932 0.462293 -0.788869
vn 0.428058 0.465688 -0.774533
vn 0.000000 0.217716 -0.976012
vn 0.000000 0.217716 -0.976012
vn 0.000000 0.217716 -0.976012
vn 0.358134 0.213484 -0.908936
vn 0.444432 0.210094 -0.870827
vn 0.472106 0.217715 -0.854234
vn 0.011700 -0.999842 -0.013350
vn 0.004928 -0.999871 -0.015312
vn 0.003937 -0.999946 -0.009573
vn 0.009846 -0.999888 -0.011234
vn 0.045099 -0.998967 -0.005510
vn 0.038350 -0.999237 -0.007384
vn 0.042149 -0.998998 0.015064
vn 0.029126 -0.999446 0.016136
vn -0.006970 -0.999538 0.029580
vn -0.005500 -0.999633 0.026535
vn -0.003876 -0.999416 0.033939
vn -0.002952 -0.999662 0.025845
vn -0.008772 -0.995037 0.099116
vn 0.000000 -0.994706 0.102766
vn 0.057330 -0.997593 0.038998
vn 0.055368 -0.998466 0.000000
vn 0.000000 -1.000000 0.000000
vn 0.000000 -1.000000 0.000000
vn -0.025948 -0.980113 0.196735
vn 0.000000 -0.979948 0.199253
vn 0.003752 -0.986292 0.164966
vn 0.040931 -0.997545 0.056826
vn 0.000000 -1.000000 0.000000
vn 0.000000 -1.000000 0.000000
vn 0.000465 -0.999885 -0.015139
vn 0.003063 -0.999725 -0.023250
vn -0.000000 -0.999984 0.005725
vn -0.000824 -0.999919 -0.012701
vn -0.004572 -0.999720 -0.023221
vn -0.003811 -0.999716 -0.023540
vn 0.001825 -0.999722 -0.023495
vn 0.003226 -0.999695 -0.024488
vn -0.000000 -0.999754 -0.022201
vn -0.002850 -0.999719 -0.023531
vn -0.005099 -0.999665 -0.025379
vn -0.004679 -0.999571 -0.028902
vn 0.893062 0.207054 -0.399462
vn 0.876158 0.201673 -0.437807
vn 0.802253 0.438120 -0.405513
vn 0.815654 0.458491 -0.352839
vn 0.961545 0.273146 0.028692
vn 0.886514 0.460393 0.046152
vn 0.961064 0.274881 -0.028221
vn 0.886688 0.459911 -0.047614
vn 0.943636 0.262121 0.202098
vn 0.718967 0.666393 0.197502
vn 0.936635 0.263443 0.230894
vn 0.765697 0.600548 0.230327
vn 0.551637 0.808832 -0.203684
vn 0.539303 0.824965 -0.169071
vn 0.471323 0.879828 -0.061293
vn 0.468921 0.881539 0.054793
vn 0.410408 0.894458 0.177511
vn 0.391737 0.905356 0.163927
vn 0.507338 0.851257 -0.134051
vn 0.508574 0.852428 -0.121326
vn 0.543904 0.822789 -0.164885
vn 0.362670 0.913697 0.183382
vn 0.299165 0.938011 0.175029
vn 0.289001 0.947769 0.134956
vn 0.463017 0.868040 -0.179226
vn 0.488841 0.850840 -0.192628
vn 0.720283 0.647505 -0.248858
vn 0.361639 0.892717 0.268838
vn 0.320043 0.896494 0.306383
vn 0.486667 0.841738 0.233735
vn 0.559846 0.732833 -0.386689
vn 0.555671 0.735743 -0.387184
vn 0.477490 0.832563 -0.280789
vn 0.245102 0.957995 0.148896
vn 0.182291 0.950714 0.250826
vn 0.934753 0.355298 0.000000
vn -0.657263 0.194925 -0.728018
vn -0.829074 0.205308 -0.520082
vn -0.785210 0.406556 -0.467073
vn -0.618809 0.385141 -0.684647
vn -0.981562 0.185852 -0.044666
vn -0.923277 0.381518 -0.044754
vn -0.979713 0.195404 -0.044490
vn -0.875875 0.478847 -0.059572
vn -0.968856 0.209375 -0.132215
vn -0.764247 0.641334 -0.067955
vn -0.966352 0.210790 -0.147417
vn -0.891261 0.438395 -0.116031
vn -0.633738 0.662523 -0.399298
vn -0.477370 0.663684 -0.575883
vn -0.848587 0.528723 -0.018764
vn -0.789639 0.609235 -0.072828
vn -0.390676 0.915754 0.093631
vn -0.450461 0.892151 0.033938
vn -0.404149 0.891710 -0.203759
vn -0.328023 0.873145 -0.360581
vn -0.386075 0.921408 0.044191
vn -0.362446 0.923862 -0.122935
vn -0.267507 0.954491 0.131861
vn -0.248747 0.944827 0.213136
vn -0.234120 0.972183 0.006949
vn -0.253853 0.957282 -0.138455
vn -0.215551 0.975082 0.052476
vn -0.273592 0.955022 -0.114369
vn -0.291021 0.955275 0.052491
vn -0.229849 0.935876 0.267030
vn -0.276873 0.959853 0.044993
vn -0.295377 0.953633 0.057769
vn -0.238852 0.970939 0.015068
vn -0.464220 0.883520 -0.062395
vn -0.565226 0.816643 -0.116681
vn -0.595277 0.790017 -0.146692
s 1
g pCube1
usemtl initialShadingGroup
f 1/1/1 2/2/2 8/8/3 7/7/4
f 2/2/2 3/3/5 9/9/6 8/8/3
f 3/3/5 4/4/7 10/10/8 9/9/6
f 4/4/7 5/5/9 11/11/10 10/10/8
f 5/5/9 6/6/11 12/12/12 11/11/10
f 7/7/4 8/8/3 14/14/13 13/13/14
f 8/8/3 9/9/6 15/15/15 14/14/13
f 9/9/6 10/10/8 16/16/16 15/15/15
f 10/10/8 11/11/10 17/17/17 16/16/16
f 11/11/10 12/12/12 18/18/18 17/17/17
f 13/13/14 14/14/13 20/20/19 19/19/20
f 14/14/13 15/15/15 21/21/21 20/20/19
f 15/15/15 16/16/16 22/22/22 21/21/21
f 16/16/16 17/17/17 23/23/23 22/22/22
f 17/17/17 18/18/18 24/24/24 23/23/23
f 19/19/20 20/20/19 26/26/25 25/25/26
f 20/20/19 21/21/21 27/27/27 26/26/25
f 21/21/21 22/22/22 28/28/28 27/27/27
f 22/22/22 23/23/23 29/29/29 28/28/28
f 23/23/23 24/24/24 30/30/30 29/29/29
f 25/25/26 26/26/25 32/32/31 31/31/32
f 26/26/25 27/27/27 33/33/33 32/32/31
f 27/27/27 28/28/28 34/34/34 33/33/33
f 28/28/28 29/29/29 35/35/35 34/34/34
f 29/29/29 30/30/30 36/36/36 35/35/35
s 2
f 31/31/37 32/32/38 38/38/39 37/37/40
f 32/32/38 33/33/41 39/39/42 38/38/39
f 33/33/41 34/34/43 40/40/44 39/39/42
f 34/34/43 35/35/45 41/41/46 40/40/44
f 35/35/45 36/36/47 42/42/48 41/41/46
f 37/37/40 38/38/39 44/44/49 43/43/50
f 38/38/39 39/39/42 45/45/51 44/44/49
f 39/39/42 40/40/44 46/46/52 45/45/51
f 40/40/44 41/41/46 47/47/53 46/46/52
f 41/41/46 42/42/48 48/48/54 47/47/53
f 43/43/50 44/44/49 50/50/55 49/49/56
f 44/44/49 45/45/51 51/51/57 50/50/55
f 45/45/51 46/46/52 52/52/58 51/51/57
f 46/46/52 47/47/53 53/53/59 52/52/58
f 47/47/53 48/48/54 54/54/60 53/53/59
f 49/49/56 50/50/55 56/56/61 55/55/62
f 50/50/55 51/51/57 57/57/63 56/56/61
f 51/51/57 52/52/58 58/58/64 57/57/63
f 52/52/58 53/53/59 59/59/65 58/58/64
f 53/53/59 54/54/60 60/60/66 59/59/65
f 55/55/62 56/56/61 62/62/67 61/61/68
f 56/56/61 57/57/63 63/63/69 62/62/67
f 57/57/63 58/58/64 64/64/70 63/63/69
f 58/58/64 59/59/65 65/65/71 64/64/70
f 59/59/65 60/60/66 66/66/72 65/65/71
s 3
f 61/61/73 62/62/74 68/68/75 67/67/76
f 62/62/74 63/63/77 69/69/78 68/68/75
f 63/63/77 64/64/79 70/70/80 69/69/78
f 64/64/79 65/65/81 71/71/82 70/70/80
f 65/65/81 66/66/83 72/72/84 71/71/82
f 67/67/76 68/68/75 74/74/85 73/73/86
f 68/68/75 69/69/78 75/75/87 74/74/85
f 69/69/78 70/70/80 76/76/88 75/75/87
f 70/70/80 71/71/82 77/77/89 76/76/88
f 71/71/82 72/72/84 78/78/90 77/77/89
f 73/73/86 74/74/85 80/80/91 79/79/92
f 74/74/85 75/75/87 81/81/93 80/80/91
f 75/75/87 76/76/88 82/82/94 81/81/93
f 76/76/88 77/77/89 83/83/95 82/82/94
f 77/77/89 78/78/90 84/84/96 83/83/95
f 79/79/92 80/80/91 86/86/97 85/85/98
f 80/80/91 81/81/93 87/87/99 86/86/97
f 81/81/93 82/82/94 88/88/100 87/87/99
f 82/82/94 83/83/95 89/89/101 88/88/100
f 83/83/95 84/84/96 90/90/102 89/89/101
f 85/85/98 86/86/97 92/92/103 91/91/104
f 86/86/97 87/87/99 93/93/105 92/92/103
f 87/87/99 88/88/100 94/94/106 93/93/105
f 88/88/100 89/89/101 95/95/107 94/94/106
f 89/89/101 90/90/102 96/96/108 95/95/107
s 4
f 91/91/109 92/92/110 98/98/111 97/97/112
f 92/92/110 93/93/113 99/99/114 98/98/111
f 93/93/113 94/94/115 100/100/116 99/99/114
f 94/94/115 95/95/117 101/101/118 100/100/116
f 95/95/117 96/96/119 102/102/120 101/101/118
f 97/97/112 98/98/111 104/104/121 103/103/122
f 98/98/111 99/99/114 105/105/123 104/104/121
f 99/99/114 100/100/116 106/106/124 105/105/123
f 100/100/116 101/101/118 107/107/125 106/106/124
f 101/101/118 102/102/120 108/108/126 107/107/125
f 103/103/122 104/104/121 110/110/127 109/109/128
f 104/104/121 105/105/123 111/111/129 110/110/127
f 105/105/123 106/106/124 112/112/130 111/111/129
f 106/106/124 107/107/125 113/113/131 112/112/130
f 107/107/125 108/108/126 114/114/132 113/113/131
f 109/109/128 110/110/127 116/116/133 115/115/134
f 110/110/127 111/111/129 117/117/135 116/116/133
f 111/111/129 112/112/130 118/118/136 117/117/135
f 112/112/130 113/113/131 119/119/137 118/118/136
f 113/113/131 114/114/132 120/120/138 119/119/137
f 115/115/134 116/116/133 2/122/139 1/121/140
f 116/116/133 117/117/135 3/123/141 2/122/139
f 117/117/135 118/118/136 4/124/142 3/123/141
f 118/118/136 119/119/137 5/125/143 4/124/142
f 119/119/137 120/120/138 6/126/144 5/125/143
s 5
f 102/128/145 96/127/146 90/132/147 121/133/148
f 108/129/149 102/128/145 121/133/148 122/134/150
f 114/130/151 108/129/149 122/134/150 123/135/152
f 120/131/153 114/130/151 123/135/152 124/136/154
f 6/6/155 120/131/153 124/136/154 12/12/156
f 121/133/148 90/132/147 84/137/157 125/138/158
f 122/134/150 121/133/148 125/138/158 126/139/159
f 123/135/152 122/134/150 126/139/159 127/140/160
f 124/136/154 123/135/152 127/140/160 128/141/161
f 12/12/156 124/136/154 128/141/161 18/18/162
f 125/138/158 84/137/157 78/142/163 129/143/164
f 126/139/159 125/138/158 129/143/164 130/144/165
f 127/140/160 126/139/159 130/144/165 131/145/166
f 128/141/161 127/140/160 131/145/166 132/146/167
f 18/18/162 128/141/161 132/146/167 24/24/168
f 129/143/164 78/142/163 72/147/169 133/148/170
f 130/144/165 129/143/164 133/148/170 134/149/171
f 131/145/166 130/144/165 134/149/171 135/150/172
f 132/146/167 131/145/166 135/150/172 136/151/173
f 24/24/168 132/146/167 136/151/173 30/30/174
f 133/148/170 72/147/169 66/152/175 60/153/176
f 134/149/171 133/148/170 60/153/176 54/154/177
f 135/150/172 134/149/171 54/154/177 48/155/178
f 136/151/173 135/150/172 48/155/178 42/156/179
f 30/30/174 136/151/173 42/156/179 36/36/180
s 6
f 91/157/181 97/158/182 137/163/183 85/162/184
f 97/158/182 103/159/185 138/164/186 137/163/183
f 103/159/185 109/160/187 139/165/188 138/164/186
f 109/160/187 115/161/189 140/166/190 139/165/188
f 115/161/189 1/1/191 7/7/192 140/166/190
f 85/162/184 137/163/183 141/168/193 79/167/194
f 137/163/183 138/164/186 142/169/195 141/168/193
f 138/164/186 139/165/188 143/170/196 142/169/195
f 139/165/188 140/166/190 144/171/197 143/170/196
f 140/166/190 7/7/192 13/13/198 144/171/197
f 79/167/194 141/168/193 145/173/199 73/172/200
f 141/168/193 142/169/195 146/174/201 145/173/199
f 142/169/195 143/170/196 147/175/202 146/174/201
f 143/170/196 144/171/197 148/176/203 147/175/202
f 144/171/197 13/13/198 19/19/204 148/176/203
f 73/172/200 145/173/199 149/178/205 67/177/206
f 145/173/199 146/174/201 150/179/207 149/178/205
f 146/174/201 147/175/202 151/180/208 150/179/207
f 147/175/202 148/176/203 152/181/209 151/180/208
f 148/176/203 19/19/204 25/25/210 152/181/209
f 67/177/206 149/178/205 55/183/211 61/182/212
f 149/178/205 150/179/207 49/184/213 55/183/211
f 150/179/207 151/180/208 43/185/214 49/184/213
f 151/180/208 152/181/209 37/186/215 43/185/214
f 152/181/209 25/25/210 31/31/216 37/186/215
