# This file uses centimeters as units for non-parametric coordinates.

mtllib Pointie2.mtl
g default
v -2.163306 0.275101 1.349017
v -2.163305 0.275101 -1.474802
v -1.575958 1.875809 -0.051251
v 1.373600 0.275100 1.349017
v 1.104182 1.875809 -0.051251
v 1.373600 0.275100 -1.474803
v 1.104182 1.875809 -2.005802
v -1.286656 1.838932 -2.092483
v -0.807775 3.272337 -1.277118
v 0.765587 3.272337 -1.277118
v -0.914524 2.340444 -2.295730
v -0.585738 3.997790 -2.543744
v 0.588882 3.743843 -2.453011
v 0.471598 2.878196 -2.985592
v -0.703021 3.132144 -3.076325
v -0.486542 3.905609 -3.542114
v 0.309719 3.768040 -3.506699
v 0.187131 3.000704 -3.731148
v -0.609130 3.138272 -3.766562
v -0.507399 3.386716 -4.925399
v 0.018472 3.271808 -4.992566
v -0.034618 2.865999 -4.657444
v -0.546834 2.977924 -4.592019
v -0.612489 2.543608 -5.695393
v -0.400277 2.497996 -5.720259
v -0.419810 2.340187 -5.586440
v -0.626513 2.384614 -5.562220
v 0.765587 2.340444 -2.295730
v -0.612489 2.543608 -5.695393
v -0.612489 2.543608 -5.695393
v -0.612489 2.543608 -5.695393
v -0.612489 2.543608 -5.695393
v -0.612489 2.543608 -5.695393
v -0.612489 2.543608 -5.695393
v -0.612489 2.543608 -5.695393
v -0.612489 2.543608 -5.695393
v -0.612489 2.543608 -5.695393
v -0.612489 2.543608 -5.695393
v -0.612489 2.543608 -5.695393
v -0.612489 2.543608 -5.695393
v -0.612489 2.543608 -5.695393
v -0.612489 2.543608 -5.695393
v -0.612489 2.543608 -5.695393
v -0.612489 2.543608 -5.695393
v -0.612489 2.543608 -5.695393
v -0.937195 1.431534 -6.103976
v -0.400277 2.497996 -5.720259
v -0.400277 2.497996 -5.720259
v -0.400277 2.497996 -5.720259
v -0.400277 2.497996 -5.720259
v -0.400277 2.497996 -5.720259
v -0.400277 2.497996 -5.720259
v -0.400277 2.497996 -5.720259
v -0.400277 2.497996 -5.720259
v -0.400277 2.497996 -5.720259
v -0.400277 2.497996 -5.720259
v -0.400277 2.497996 -5.720259
v -0.400277 2.497996 -5.720259
v -0.400277 2.497996 -5.720259
v -0.400277 2.497996 -5.720259
v -0.400277 2.497996 -5.720259
v -0.400277 2.497996 -5.720259
v -0.400277 2.497996 -5.720259
v -0.845575 1.411842 -6.114709
v -0.419810 2.340187 -5.586440
v -0.419810 2.340187 -5.586440
v -0.419810 2.340187 -5.586440
v -0.419810 2.340187 -5.586440
v -0.419810 2.340187 -5.586440
v -0.419810 2.340187 -5.586440
v -0.419810 2.340187 -5.586440
v -0.419810 2.340187 -5.586440
v -0.419810 2.340187 -5.586440
v -0.419810 2.340187 -5.586440
v -0.419810 2.340187 -5.586440
v -0.419810 2.340187 -5.586440
v -0.419810 2.340187 -5.586440
v -0.419810 2.340187 -5.586440
v -0.419810 2.340187 -5.586440
v -0.419810 2.340187 -5.586440
v -0.419810 2.340187 -5.586440
v -0.854009 1.343710 -6.056933
v -0.626513 2.384614 -5.562220
v -0.626513 2.384614 -5.562220
v -0.626513 2.384614 -5.562220
v -0.626513 2.384614 -5.562220
v -0.626513 2.384614 -5.562220
v -0.626513 2.384614 -5.562220
v -0.626513 2.384614 -5.562220
v -0.626513 2.384614 -5.562220
v -0.626513 2.384614 -5.562220
v -0.626513 2.384614 -5.562220
v -0.626513 2.384614 -5.562220
v -0.626513 2.384614 -5.562220
v -0.626513 2.384614 -5.562220
v -0.626513 2.384614 -5.562220
v -0.626513 2.384614 -5.562220
v -0.626513 2.384614 -5.562220
v -0.626513 2.384614 -5.562220
v -0.943249 1.362892 -6.046477
vt 0.375000 0.250000
vt 0.375000 0.500000
vt 0.375000 0.250000
vt 0.625000 0.250000
vt 0.625000 0.250000
vt 0.625000 0.500000
vt 0.625000 0.500000
vt 0.375000 0.500000
vt 0.375000 0.250000
vt 0.625000 0.250000
vt 0.625000 0.500000
vt 0.375000 0.500000
vt 0.375000 0.250000
vt 0.625000 0.250000
vt 0.625000 0.500000
vt 0.375000 0.500000
vt 0.375000 0.250000
vt 0.625000 0.250000
vt 0.625000 0.500000
vt 0.375000 0.500000
vt 0.375000 0.250000
vt 0.625000 0.250000
vt 0.625000 0.500000
vt 0.375000 0.500000
vt 0.375000 0.250000
vt 0.625000 0.250000
vt 0.625000 0.500000
vt 0.375000 0.500000
vt 0.375000 0.250000
vt 0.375000 0.250000
vt 0.375000 0.250000
vt 0.375000 0.250000
vt 0.375000 0.250000
vt 0.375000 0.250000
vt 0.375000 0.250000
vt 0.375000 0.250000
vt 0.375000 0.250000
vt 0.375000 0.250000
vt 0.375000 0.250000
vt 0.375000 0.250000
vt 0.375000 0.250000
vt 0.375000 0.250000
vt 0.375000 0.250000
vt 0.375000 0.250000
vt 0.375000 0.250000
vt 0.375000 0.250000
vt 0.625000 0.250000
vt 0.625000 0.250000
vt 0.625000 0.250000
vt 0.625000 0.250000
vt 0.625000 0.250000
vt 0.625000 0.250000
vt 0.625000 0.250000
vt 0.625000 0.250000
vt 0.625000 0.250000
vt 0.625000 0.250000
vt 0.625000 0.250000
vt 0.625000 0.250000
vt 0.625000 0.250000
vt 0.625000 0.250000
vt 0.625000 0.250000
vt 0.625000 0.250000
vt 0.625000 0.250000
vt 0.625000 0.250000
vt 0.625000 0.500000
vt 0.625000 0.500000
vt 0.625000 0.500000
vt 0.625000 0.500000
vt 0.625000 0.500000
vt 0.625000 0.500000
vt 0.625000 0.500000
vt 0.625000 0.500000
vt 0.625000 0.500000
vt 0.625000 0.500000
vt 0.625000 0.500000
vt 0.625000 0.500000
vt 0.625000 0.500000
vt 0.625000 0.500000
vt 0.625000 0.500000
vt 0.625000 0.500000
vt 0.625000 0.500000
vt 0.625000 0.500000
vt 0.375000 0.500000
vt 0.375000 0.500000
vt 0.375000 0.500000
vt 0.375000 0.500000
vt 0.375000 0.500000
vt 0.375000 0.500000
vt 0.375000 0.500000
vt 0.375000 0.500000
vt 0.375000 0.500000
vt 0.375000 0.500000
vt 0.375000 0.500000
vt 0.375000 0.500000
vt 0.375000 0.500000
vt 0.375000 0.500000
vt 0.375000 0.500000
vt 0.375000 0.500000
vt 0.375000 0.500000
vt 0.375000 0.500000
vn -0.220832 -0.614758 -0.757170
vn -0.220832 -0.614758 -0.757170
vn -0.220832 -0.614758 -0.757170
vn -0.220832 -0.614758 -0.757170
vn 0.000000 0.658411 0.752659
vn 0.000000 0.658411 0.752658
vn 0.000000 0.658411 0.752659
vn 0.000000 0.658411 0.752658
vn 0.986130 0.165977 0.000000
vn 0.986130 0.165977 0.000000
vn 0.986130 0.165977 0.000000
vn 0.986130 0.165977 0.000000
vn 0.015868 -0.343848 -0.938891
vn 0.015868 -0.343848 -0.938891
vn 0.015868 -0.343848 -0.938891
vn 0.015868 -0.343848 -0.938891
vn -0.919573 0.388669 -0.057629
vn -0.919573 0.388669 -0.057629
vn -0.919573 0.388669 -0.057629
vn -0.919573 0.388669 -0.057629
vn 0.000000 0.659694 0.751534
vn 0.000000 0.659694 0.751534
vn 0.000000 0.659694 0.751534
vn 0.000000 0.659694 0.751534
vn 0.956829 0.277347 -0.086930
vn 0.956829 0.277347 -0.086930
vn 0.956829 0.277347 -0.086930
vn 0.956829 0.277347 -0.086930
vn 0.023076 -0.455162 -0.890110
vn 0.023076 -0.455162 -0.890110
vn 0.023076 -0.455162 -0.890110
vn 0.023076 -0.455162 -0.890110
vn -0.897235 0.402734 -0.181039
vn -0.897235 0.402734 -0.181039
vn -0.897235 0.402734 -0.181039
vn -0.897235 0.402734 -0.181039
vn 0.068215 0.895379 0.440048
vn 0.068215 0.895379 0.440048
vn 0.068215 0.895379 0.440048
vn 0.068215 0.895379 0.440048
vn 0.976253 0.101472 -0.191400
vn 0.976253 0.101472 -0.191400
vn 0.976253 0.101472 -0.191400
vn 0.976253 0.101472 -0.191400
vn -0.044781 -0.742281 -0.668590
vn -0.044781 -0.742281 -0.668590
vn -0.044781 -0.742281 -0.668590
vn -0.044781 -0.742281 -0.668590
vn -0.980367 0.183802 -0.071401
vn -0.980367 0.183802 -0.071401
vn -0.980367 0.183802 -0.071401
vn -0.980367 0.183802 -0.071401
vn 0.197665 0.979005 -0.049770
vn 0.197665 0.979005 -0.049770
vn 0.197665 0.979005 -0.049770
vn 0.197665 0.979005 -0.049770
vn 0.954237 -0.001534 -0.299049
vn 0.954237 -0.001534 -0.299049
vn 0.954237 -0.001534 -0.299049
vn 0.954237 -0.001534 -0.299049
vn -0.190614 -0.979675 -0.062471
vn -0.190614 -0.979675 -0.062471
vn -0.190614 -0.979675 -0.062471
vn -0.190614 -0.979675 -0.062471
vn -0.972439 0.199095 -0.121341
vn -0.972439 0.199095 -0.121341
vn -0.972439 0.199095 -0.121341
vn -0.972439 0.199095 -0.121341
vn 0.168056 0.923436 -0.344999
vn 0.168056 0.923436 -0.344999
vn 0.168056 0.923436 -0.344999
vn 0.168056 0.923436 -0.344999
vn 0.973062 -0.161259 -0.164762
vn 0.973062 -0.161259 -0.164762
vn 0.973062 -0.161259 -0.164762
vn 0.973062 -0.161259 -0.164762
vn -0.180295 -0.967131 0.179308
vn -0.180295 -0.967131 0.179308
vn -0.180295 -0.967131 0.179308
vn -0.180295 -0.967131 0.179308
vn -0.989651 0.130886 -0.058818
vn -0.989651 0.130886 -0.058818
vn -0.989651 0.130886 -0.058818
vn -0.989651 0.130886 -0.058818
vn 0.053139 0.669260 -0.741126
vn 0.053139 0.669260 -0.741126
vn 0.053139 0.669260 -0.741126
vn 0.053139 0.669260 -0.741126
vn 0.929321 -0.299489 -0.216032
vn 0.929321 -0.299489 -0.216032
vn 0.929321 -0.299489 -0.216032
vn 0.929321 -0.299489 -0.216032
vn -0.117756 -0.842679 0.525381
vn -0.117756 -0.842679 0.525381
vn -0.117756 -0.842679 0.525381
vn -0.117756 -0.842679 0.525381
vn -0.994068 0.107446 0.016858
vn -0.994068 0.107446 0.016858
vn -0.994068 0.107446 0.016858
vn -0.994068 0.107446 0.016858
vn 0.000000 0.000000 0.000000
vn 0.000000 0.000000 0.000000
vn 0.000000 0.000000 0.000000
vn 0.000000 0.000000 0.000000
vn 0.000000 0.000000 0.000000
vn 0.000000 0.000000 0.000000
vn 0.000000 0.000000 0.000000
vn 0.000000 0.000000 0.000000
vn 0.000000 0.000000 0.000000
vn 0.000000 0.000000 0.000000
vn 0.000000 0.000000 0.000000
vn 0.000000 0.000000 0.000000
vn 0.000000 0.000000 0.000000
vn 0.000000 0.000000 0.000000
vn 0.000000 0.000000 0.000000
vn 0.000000 0.000000 0.000000
vn 0.000000 0.000000 0.000000
vn 0.000000 0.000000 0.000000
vn 0.000000 0.000000 0.000000
vn 0.000000 0.000000 0.000000
vn 0.000000 0.000000 0.000000
vn 0.000000 0.000000 0.000000
vn 0.000000 0.000000 0.000000
vn 0.000000 0.000000 0.000000
vn 0.000000 0.000000 0.000000
vn 0.000000 0.000000 0.000000
vn 0.000000 0.000000 0.000000
vn 0.000000 0.000000 0.000000
vn 0.000000 0.000000 0.000000
vn 0.000000 0.000000 0.000000
vn 0.000000 0.000000 0.000000
vn 0.000000 0.000000 0.000000
vn 0.000000 0.000000 0.000000
vn 0.000000 0.000000 0.000000
vn 0.000000 0.000000 0.000000
vn 0.000000 0.000000 0.000000
vn 0.000000 0.000000 0.000000
vn 0.000000 0.000000 0.000000
vn 0.000000 0.000000 0.000000
vn 0.000000 0.000000 0.000000
vn 0.000000 0.000000 0.000000
vn 0.000000 0.000000 0.000000
vn 0.000000 0.000000 0.000000
vn 0.000000 0.000000 0.000000
vn 0.000000 0.000000 0.000000
vn 0.000000 0.000000 0.000000
vn 0.000000 0.000000 0.000000
vn 0.000000 0.000000 0.000000
vn 0.000000 0.000000 0.000000
vn 0.000000 0.000000 0.000000
vn 0.000000 0.000000 0.000000
vn 0.000000 0.000000 0.000000
vn 0.000000 0.000000 0.000000
vn 0.000000 0.000000 0.000000
vn 0.000000 0.000000 0.000000
vn 0.000000 0.000000 0.000000
vn 0.000000 0.000000 0.000000
vn 0.000000 0.000000 0.000000
vn 0.000000 0.000000 0.000000
vn 0.000000 0.000000 0.000000
vn 0.000000 0.000000 0.000000
vn 0.000000 0.000000 0.000000
vn 0.000000 0.000000 0.000000
vn 0.000000 0.000000 0.000000
vn 0.000000 0.000000 0.000000
vn 0.000000 0.000000 0.000000
vn 0.000000 0.000000 0.000000
vn 0.000000 0.000000 0.000000
vn -0.033603 0.353301 -0.934906
vn -0.033603 0.353301 -0.934906
vn -0.033603 0.353301 -0.934906
vn -0.033603 0.353301 -0.934906
vn 0.000000 0.000000 0.000000
vn 0.000000 0.000000 0.000000
vn 0.000000 0.000000 0.000000
vn 0.000000 0.000000 0.000000
vn 0.000000 0.000000 0.000000
vn 0.000000 0.000000 0.000000
vn 0.000000 0.000000 0.000000
vn 0.000000 0.000000 0.000000
vn 0.000000 0.000000 0.000000
vn 0.000000 0.000000 0.000000
vn 0.000000 0.000000 0.000000
vn 0.000000 0.000000 0.000000
vn 0.000000 0.000000 0.000000
vn 0.000000 0.000000 0.000000
vn 0.000000 0.000000 0.000000
vn 0.000000 0.000000 0.000000
vn 0.000000 0.000000 0.000000
vn 0.000000 0.000000 0.000000
vn 0.000000 0.000000 0.000000
vn 0.000000 0.000000 0.000000
vn 0.000000 0.000000 0.000000
vn 0.000000 0.000000 0.000000
vn 0.000000 0.000000 0.000000
vn 0.000000 0.000000 0.000000
vn 0.000000 0.000000 0.000000
vn 0.000000 0.000000 0.000000
vn 0.000000 0.000000 0.000000
vn 0.000000 0.000000 0.000000
vn 0.000000 0.000000 0.000000
vn 0.000000 0.000000 0.000000
vn 0.000000 0.000000 0.000000
vn 0.000000 0.000000 0.000000
vn 0.000000 0.000000 0.000000
vn 0.000000 0.000000 0.000000
vn 0.000000 0.000000 0.000000
vn 0.000000 0.000000 0.000000
vn 0.000000 0.000000 0.000000
vn 0.000000 0.000000 0.000000
vn 0.000000 0.000000 0.000000
vn 0.000000 0.000000 0.000000
vn 0.000000 0.000000 0.000000
vn 0.000000 0.000000 0.000000
vn 0.000000 0.000000 0.000000
vn 0.000000 0.000000 0.000000
vn 0.000000 0.000000 0.000000
vn 0.000000 0.000000 0.000000
vn 0.000000 0.000000 0.000000
vn 0.000000 0.000000 0.000000
vn 0.000000 0.000000 0.000000
vn 0.000000 0.000000 0.000000
vn 0.000000 0.000000 0.000000
vn 0.000000 0.000000 0.000000
vn 0.000000 0.000000 0.000000
vn 0.000000 0.000000 0.000000
vn 0.000000 0.000000 0.000000
vn 0.000000 0.000000 0.000000
vn 0.000000 0.000000 0.000000
vn 0.000000 0.000000 0.000000
vn 0.000000 0.000000 0.000000
vn 0.000000 0.000000 0.000000
vn 0.000000 0.000000 0.000000
vn 0.000000 0.000000 0.000000
vn 0.000000 0.000000 0.000000
vn 0.000000 0.000000 0.000000
vn 0.000000 0.000000 0.000000
vn 0.000000 0.000000 0.000000
vn 0.000000 0.000000 0.000000
vn 0.000000 0.000000 0.000000
vn 0.928108 -0.300860 -0.219314
vn 0.928108 -0.300860 -0.219314
vn 0.928108 -0.300860 -0.219314
vn 0.928108 -0.300860 -0.219314
vn 0.000000 0.000000 0.000000
vn 0.000000 0.000000 0.000000
vn 0.000000 0.000000 0.000000
vn 0.000000 0.000000 0.000000
vn 0.000000 0.000000 0.000000
vn 0.000000 0.000000 0.000000
vn 0.000000 0.000000 0.000000
vn 0.000000 0.000000 0.000000
vn 0.000000 0.000000 0.000000
vn 0.000000 0.000000 0.000000
vn 0.000000 0.000000 0.000000
vn 0.000000 0.000000 0.000000
vn 0.000000 0.000000 0.000000
vn 0.000000 0.000000 0.000000
vn 0.000000 0.000000 0.000000
vn 0.000000 0.000000 0.000000
vn 0.000000 0.000000 0.000000
vn 0.000000 0.000000 0.000000
vn 0.000000 0.000000 0.000000
vn 0.000000 0.000000 0.000000
vn 0.000000 0.000000 0.000000
vn 0.000000 0.000000 0.000000
vn 0.000000 0.000000 0.000000
vn 0.000000 0.000000 0.000000
vn 0.000000 0.000000 0.000000
vn 0.000000 0.000000 0.000000
vn 0.000000 0.000000 0.000000
vn 0.000000 0.000000 0.000000
vn 0.000000 0.000000 0.000000
vn 0.000000 0.000000 0.000000
vn 0.000000 0.000000 0.000000
vn 0.000000 0.000000 0.000000
vn 0.000000 0.000000 0.000000
vn 0.000000 0.000000 0.000000
vn 0.000000 0.000000 0.000000
vn 0.000000 0.000000 0.000000
vn 0.000000 0.000000 0.000000
vn 0.000000 0.000000 0.000000
vn 0.000000 0.000000 0.000000
vn 0.000000 0.000000 0.000000
vn 0.000000 0.000000 0.000000
vn 0.000000 0.000000 0.000000
vn 0.000000 0.000000 0.000000
vn 0.000000 0.000000 0.000000
vn 0.000000 0.000000 0.000000
vn 0.000000 0.000000 0.000000
vn 0.000000 0.000000 0.000000
vn 0.000000 0.000000 0.000000
vn 0.000000 0.000000 0.000000
vn 0.000000 0.000000 0.000000
vn 0.000000 0.000000 0.000000
vn 0.000000 0.000000 0.000000
vn 0.000000 0.000000 0.000000
vn 0.000000 0.000000 0.000000
vn 0.000000 0.000000 0.000000
vn 0.000000 0.000000 0.000000
vn 0.000000 0.000000 0.000000
vn 0.000000 0.000000 0.000000
vn 0.000000 0.000000 0.000000
vn 0.000000 0.000000 0.000000
vn 0.000000 0.000000 0.000000
vn 0.000000 0.000000 0.000000
vn 0.000000 0.000000 0.000000
vn 0.000000 0.000000 0.000000
vn 0.000000 0.000000 0.000000
vn 0.000000 0.000000 0.000000
vn 0.000000 0.000000 0.000000
vn 0.000000 0.000000 0.000000
vn 0.012939 -0.431526 0.902007
vn 0.012939 -0.431526 0.902008
vn 0.012939 -0.431526 0.902007
vn 0.012939 -0.431526 0.902007
vn 0.000000 0.000000 0.000000
vn 0.000000 0.000000 0.000000
vn 0.000000 0.000000 0.000000
vn 0.000000 0.000000 0.000000
vn 0.000000 0.000000 0.000000
vn 0.000000 0.000000 0.000000
vn 0.000000 0.000000 0.000000
vn 0.000000 0.000000 0.000000
vn 0.000000 0.000000 0.000000
vn 0.000000 0.000000 0.000000
vn 0.000000 0.000000 0.000000
vn 0.000000 0.000000 0.000000
vn 0.000000 0.000000 0.000000
vn 0.000000 0.000000 0.000000
vn 0.000000 0.000000 0.000000
vn 0.000000 0.000000 0.000000
vn 0.000000 0.000000 0.000000
vn 0.000000 0.000000 0.000000
vn 0.000000 0.000000 0.000000
vn 0.000000 0.000000 0.000000
vn 0.000000 0.000000 0.000000
vn 0.000000 0.000000 0.000000
vn 0.000000 0.000000 0.000000
vn 0.000000 0.000000 0.000000
vn 0.000000 0.000000 0.000000
vn 0.000000 0.000000 0.000000
vn 0.000000 0.000000 0.000000
vn 0.000000 0.000000 0.000000
vn 0.000000 0.000000 0.000000
vn 0.000000 0.000000 0.000000
vn 0.000000 0.000000 0.000000
vn 0.000000 0.000000 0.000000
vn 0.000000 0.000000 0.000000
vn 0.000000 0.000000 0.000000
vn 0.000000 0.000000 0.000000
vn 0.000000 0.000000 0.000000
vn 0.000000 0.000000 0.000000
vn 0.000000 0.000000 0.000000
vn 0.000000 0.000000 0.000000
vn 0.000000 0.000000 0.000000
vn 0.000000 0.000000 0.000000
vn 0.000000 0.000000 0.000000
vn 0.000000 0.000000 0.000000
vn 0.000000 0.000000 0.000000
vn 0.000000 0.000000 0.000000
vn 0.000000 0.000000 0.000000
vn 0.000000 0.000000 0.000000
vn 0.000000 0.000000 0.000000
vn 0.000000 0.000000 0.000000
vn 0.000000 0.000000 0.000000
vn 0.000000 0.000000 0.000000
vn 0.000000 0.000000 0.000000
vn 0.000000 0.000000 0.000000
vn 0.000000 0.000000 0.000000
vn 0.000000 0.000000 0.000000
vn 0.000000 0.000000 0.000000
vn 0.000000 0.000000 0.000000
vn 0.000000 0.000000 0.000000
vn 0.000000 0.000000 0.000000
vn 0.000000 0.000000 0.000000
vn 0.000000 0.000000 0.000000
vn 0.000000 0.000000 0.000000
vn 0.000000 0.000000 0.000000
vn 0.000000 0.000000 0.000000
vn 0.000000 0.000000 0.000000
vn 0.000000 0.000000 0.000000
vn 0.000000 0.000000 0.000000
vn 0.000000 0.000000 0.000000
vn -0.961614 0.221027 0.162619
vn -0.961614 0.221027 0.162619
vn -0.961614 0.221027 0.162619
vn -0.961614 0.221027 0.162619
s off
g pCube1
usemtl initialShadingGroup
f 46/46/1 64/64/2 82/82/3 100/100/4
f 1/1/5 4/4/6 5/5/7 3/3/8
f 4/4/9 6/6/10 7/7/11 5/5/12
f 6/6/13 2/2/14 8/8/15 7/7/16
f 2/2/17 1/1/18 3/3/19 8/8/20
f 3/3/21 5/5/22 10/10/23 9/9/24
f 5/5/25 7/7/26 28/11/27 10/10/28
f 7/7/29 8/8/30 11/12/31 28/11/32
f 8/8/33 3/3/34 9/9/35 11/12/36
f 9/9/37 10/10/38 13/14/39 12/13/40
f 10/10/41 28/11/42 14/15/43 13/14/44
f 28/11/45 11/12/46 15/16/47 14/15/48
f 11/12/49 9/9/50 12/13/51 15/16/52
f 12/13/53 13/14/54 17/18/55 16/17/56
f 13/14/57 14/15/58 18/19/59 17/18/60
f 14/15/61 15/16/62 19/20/63 18/19/64
f 15/16/65 12/13/66 16/17/67 19/20/68
f 16/17/69 17/18/70 21/22/71 20/21/72
f 17/18/73 18/19/74 22/23/75 21/22/76
f 18/19/77 19/20/78 23/24/79 22/23/80
f 19/20/81 16/17/82 20/21/83 23/24/84
f 20/21/85 21/22/86 25/26/87 24/25/88
f 21/22/89 22/23/90 26/27/91 25/26/92
f 22/23/93 23/24/94 27/28/95 26/27/96
f 23/24/97 20/21/98 24/25/99 27/28/100
f 24/25/101 25/26/102 47/47/103 29/29/104
f 29/29/105 47/47/106 48/48/107 30/30/108
f 30/30/109 48/48/110 49/49/111 31/31/112
f 31/31/113 49/49/114 50/50/115 32/32/116
f 32/32/117 50/50/118 51/51/119 33/33/120
f 33/33/121 51/51/122 52/52/123 34/34/124
f 34/34/125 52/52/126 53/53/127 35/35/128
f 35/35/129 53/53/130 54/54/131 36/36/132
f 36/36/133 54/54/134 55/55/135 37/37/136
f 37/37/137 55/55/138 56/56/139 38/38/140
f 38/38/141 56/56/142 57/57/143 39/39/144
f 39/39/145 57/57/146 58/58/147 40/40/148
f 40/40/149 58/58/150 59/59/151 41/41/152
f 41/41/153 59/59/154 60/60/155 42/42/156
f 42/42/157 60/60/158 61/61/159 43/43/160
f 43/43/161 61/61/162 62/62/163 44/44/164
f 44/44/165 62/62/166 63/63/167 45/45/168
f 45/45/169 63/63/170 64/64/171 46/46/172
f 25/26/173 26/27/174 65/65/175 47/47/176
f 47/47/177 65/65/178 66/66/179 48/48/180
f 48/48/181 66/66/182 67/67/183 49/49/184
f 49/49/185 67/67/186 68/68/187 50/50/188
f 50/50/189 68/68/190 69/69/191 51/51/192
f 51/51/193 69/69/194 70/70/195 52/52/196
f 52/52/197 70/70/198 71/71/199 53/53/200
f 53/53/201 71/71/202 72/72/203 54/54/204
f 54/54/205 72/72/206 73/73/207 55/55/208
f 55/55/209 73/73/210 74/74/211 56/56/212
f 56/56/213 74/74/214 75/75/215 57/57/216
f 57/57/217 75/75/218 76/76/219 58/58/220
f 58/58/221 76/76/222 77/77/223 59/59/224
f 59/59/225 77/77/226 78/78/227 60/60/228
f 60/60/229 78/78/230 79/79/231 61/61/232
f 61/61/233 79/79/234 80/80/235 62/62/236
f 62/62/237 80/80/238 81/81/239 63/63/240
f 63/63/241 81/81/242 82/82/243 64/64/244
f 26/27/245 27/28/246 83/83/247 65/65/248
f 65/65/249 83/83/250 84/84/251 66/66/252
f 66/66/253 84/84/254 85/85/255 67/67/256
f 67/67/257 85/85/258 86/86/259 68/68/260
f 68/68/261 86/86/262 87/87/263 69/69/264
f 69/69/265 87/87/266 88/88/267 70/70/268
f 70/70/269 88/88/270 89/89/271 71/71/272
f 71/71/273 89/89/274 90/90/275 72/72/276
f 72/72/277 90/90/278 91/91/279 73/73/280
f 73/73/281 91/91/282 92/92/283 74/74/284
f 74/74/285 92/92/286 93/93/287 75/75/288
f 75/75/289 93/93/290 94/94/291 76/76/292
f 76/76/293 94/94/294 95/95/295 77/77/296
f 77/77/297 95/95/298 96/96/299 78/78/300
f 78/78/301 96/96/302 97/97/303 79/79/304
f 79/79/305 97/97/306 98/98/307 80/80/308
f 80/80/309 98/98/310 99/99/311 81/81/312
f 81/81/313 99/99/314 100/100/315 82/82/316
f 27/28/317 24/25/318 29/29/319 83/83/320
f 83/83/321 29/29/322 30/30/323 84/84/324
f 84/84/325 30/30/326 31/31/327 85/85/328
f 85/85/329 31/31/330 32/32/331 86/86/332
f 86/86/333 32/32/334 33/33/335 87/87/336
f 87/87/337 33/33/338 34/34/339 88/88/340
f 88/88/341 34/34/342 35/35/343 89/89/344
f 89/89/345 35/35/346 36/36/347 90/90/348
f 90/90/349 36/36/350 37/37/351 91/91/352
f 91/91/353 37/37/354 38/38/355 92/92/356
f 92/92/357 38/38/358 39/39/359 93/93/360
f 93/93/361 39/39/362 40/40/363 94/94/364
f 94/94/365 40/40/366 41/41/367 95/95/368
f 95/95/369 41/41/370 42/42/371 96/96/372
f 96/96/373 42/42/374 43/43/375 97/97/376
f 97/97/377 43/43/378 44/44/379 98/98/380
f 98/98/381 44/44/382 45/45/383 99/99/384
f 99/99/385 45/45/386 46/46/387 100/100/388
