# This file uses centimeters as units for non-parametric coordinates.

mtllib RotsOverhang2.mtl
g default
v 0.587926 -0.523189 -3.238608
v -2.730877 0.070583 -5.155472
v -4.029072 -0.600787 0.657214
v -1.233592 -0.499018 4.007294
v 1.640534 0.070583 1.951036
v 1.638054 0.070583 0.014093
v 0.972479 0.676668 -3.763495
v -1.931842 0.676668 -3.763495
v -3.671572 0.552588 -0.020101
v -2.463338 0.185909 2.840439
v 0.972478 0.676668 1.994893
v 1.089102 0.832042 -0.026457
v 0.401389 0.914467 -3.315955
v -0.164120 1.992662 -2.999228
v -1.886666 2.552506 -0.000000
v -1.788468 1.064434 0.753587
v 0.416600 1.042658 2.235320
v 0.619344 1.120425 0.000000
v 0.991433 1.873945 -1.358373
v -0.079600 3.089336 -2.191462
v -0.482509 2.799916 -1.211031
v -0.753888 1.873945 1.358373
v 0.814626 1.873945 1.358373
v 0.896549 1.873945 0.000000
v 1.011741 2.660286 -0.784257
v 0.893915 3.548516 -0.569999
v 0.306746 3.638506 -0.000000
v 0.897260 3.612217 0.784257
v 2.391607 2.660286 1.809636
v 2.807769 2.461978 0.000000
v 1.120380 -0.621705 0.006669
v 1.603491 3.945451 0.000000
vt 0.000000 0.166667
vt 0.166667 0.166667
vt 0.333333 0.166667
vt 0.500000 0.166667
vt 0.666667 0.166667
vt 0.833333 0.166667
vt 1.000000 0.166667
vt 0.000000 0.333333
vt 0.166667 0.333333
vt 0.333333 0.333333
vt 0.500000 0.333333
vt 0.666667 0.333333
vt 0.833333 0.333333
vt 1.000000 0.333333
vt 0.000000 0.500000
vt 0.166667 0.500000
vt 0.333333 0.500000
vt 0.500000 0.500000
vt 0.666667 0.500000
vt 0.833333 0.500000
vt 1.000000 0.500000
vt 0.000000 0.666667
vt 0.166667 0.666667
vt 0.333333 0.666667
vt 0.500000 0.666667
vt 0.666667 0.666667
vt 0.833333 0.666667
vt 1.000000 0.666667
vt 0.000000 0.833333
vt 0.166667 0.833333
vt 0.333333 0.833333
vt 0.500000 0.833333
vt 0.666667 0.833333
vt 0.833333 0.833333
vt 1.000000 0.833333
vt 0.083333 0.000000
vt 0.250000 0.000000
vt 0.416667 0.000000
vt 0.583333 0.000000
vt 0.750000 0.000000
vt 0.916667 0.000000
vt 0.083333 1.000000
vt 0.250000 1.000000
vt 0.416667 1.000000
vt 0.583333 1.000000
vt 0.750000 1.000000
vt 0.916667 1.000000
vn 0.306628 0.241135 -0.920778
vn 0.306628 0.241135 -0.920779
vn 0.306628 0.241135 -0.920778
vn 0.306628 0.241135 -0.920778
vn -0.780032 0.593394 -0.198582
vn -0.780032 0.593394 -0.198582
vn -0.780032 0.593394 -0.198582
vn -0.780032 0.593394 -0.198582
vn -0.828199 0.149017 0.540260
vn -0.828199 0.149017 0.540260
vn -0.828199 0.149017 0.540260
vn -0.828199 0.149017 0.540260
vn 0.156010 0.768797 0.620171
vn 0.156010 0.768797 0.620171
vn 0.156010 0.768797 0.620171
vn 0.156010 0.768797 0.620171
vn 0.746237 0.663978 0.047582
vn 0.746237 0.663978 0.047582
vn 0.746237 0.663978 0.047582
vn 0.746237 0.663978 0.047582
vn 0.985179 0.034115 -0.168106
vn 0.985179 0.034115 -0.168106
vn 0.985179 0.034115 -0.168106
vn 0.985179 0.034115 -0.168106
vn 0.100010 0.562869 -0.820474
vn 0.100010 0.562869 -0.820474
vn 0.100010 0.562869 -0.820474
vn 0.100010 0.562869 -0.820474
vn -0.595742 0.721665 -0.352548
vn -0.595742 0.721665 -0.352548
vn -0.595742 0.721665 -0.352548
vn -0.595742 0.721665 -0.352548
vn -0.418228 0.737816 0.529824
vn -0.418228 0.737816 0.529824
vn -0.418228 0.737816 0.529824
vn -0.418228 0.737816 0.529824
vn -0.130516 0.826013 0.548332
vn -0.130516 0.826013 0.548332
vn -0.130516 0.826013 0.548332
vn -0.130516 0.826013 0.548332
vn 0.551795 0.829447 0.086829
vn 0.551795 0.829447 0.086829
vn 0.551795 0.829447 0.086829
vn 0.551795 0.829447 0.086829
vn 0.425902 0.902327 -0.066431
vn 0.425902 0.902327 -0.066431
vn 0.425902 0.902327 -0.066431
vn 0.425902 0.902327 -0.066431
vn 0.754118 0.425452 -0.500297
vn 0.754118 0.425452 -0.500297
vn 0.754118 0.425452 -0.500297
vn 0.754118 0.425452 -0.500297
vn -0.671375 0.623311 -0.400923
vn -0.671375 0.623311 -0.400923
vn -0.671375 0.623311 -0.400923
vn -0.671375 0.623311 -0.400923
vn -0.204133 0.797038 0.568383
vn -0.204133 0.797038 0.568383
vn -0.204133 0.797038 0.568383
vn -0.204133 0.797038 0.568383
vn -0.328442 0.426550 0.842722
vn -0.328442 0.426550 0.842722
vn -0.328442 0.426550 0.842722
vn -0.328442 0.426550 0.842722
vn 0.930612 -0.360022 0.065926
vn 0.930612 -0.360022 0.065926
vn 0.930612 -0.360022 0.065926
vn 0.930612 -0.360022 0.065926
vn 0.893907 -0.448237 -0.003786
vn 0.893907 -0.448237 -0.003786
vn 0.893907 -0.448237 -0.003786
vn 0.893907 -0.448237 -0.003786
vn 0.796522 0.294881 -0.527825
vn 0.796521 0.294880 -0.527825
vn 0.796521 0.294881 -0.527825
vn 0.796522 0.294881 -0.527825
vn -0.417082 0.896227 -0.151060
vn -0.417082 0.896227 -0.151060
vn -0.417082 0.896227 -0.151060
vn -0.417082 0.896227 -0.151060
vn -0.733150 0.632680 0.249414
vn -0.733150 0.632679 0.249414
vn -0.733150 0.632679 0.249414
vn -0.733150 0.632680 0.249414
vn -0.211594 0.315571 0.925010
vn -0.211594 0.315571 0.925010
vn -0.211594 0.315571 0.925010
vn -0.211594 0.315571 0.925010
vn 0.351476 -0.929300 0.113431
vn 0.351476 -0.929300 0.113431
vn 0.351476 -0.929300 0.113431
vn 0.351476 -0.929300 0.113431
vn 0.591301 -0.611266 -0.526039
vn 0.591301 -0.611266 -0.526039
vn 0.591301 -0.611266 -0.526039
vn 0.591301 -0.611266 -0.526039
vn -0.175505 -0.984478 -0.001091
vn -0.175505 -0.984478 -0.001091
vn -0.175505 -0.984478 -0.001091
vn -0.019056 -0.992721 -0.118916
vn -0.019056 -0.992721 -0.118916
vn -0.019056 -0.992721 -0.118916
vn -0.000203 -0.999534 0.030533
vn -0.000203 -0.999534 0.030533
vn -0.000203 -0.999534 0.030533
vn 0.345707 -0.909387 0.231303
vn 0.345707 -0.909387 0.231303
vn 0.345707 -0.909387 0.231303
vn 0.800860 -0.598851 -0.001025
vn 0.800860 -0.598851 -0.001025
vn 0.800860 -0.598850 -0.001025
vn 0.792794 -0.591242 -0.148022
vn 0.792794 -0.591242 -0.148022
vn 0.792794 -0.591242 -0.148022
vn 0.509386 0.265058 -0.818701
vn 0.509386 0.265058 -0.818701
vn 0.509385 0.265058 -0.818701
vn -0.214530 0.906323 -0.364081
vn -0.214530 0.906323 -0.364081
vn -0.214530 0.906323 -0.364081
vn -0.225600 0.953087 0.201815
vn -0.225600 0.953087 0.201815
vn -0.225600 0.953087 0.201815
vn 0.178778 0.837264 0.516748
vn 0.178778 0.837264 0.516748
vn 0.178778 0.837264 0.516748
vn 0.771770 0.626520 0.108827
vn 0.771770 0.626520 0.108827
vn 0.771770 0.626520 0.108827
vn 0.408060 0.331262 -0.850736
vn 0.408060 0.331262 -0.850736
vn 0.408060 0.331262 -0.850736
s off
g pSphere1
usemtl initialShadingGroup
f 1/1/1 2/2/2 8/9/3 7/8/4
f 2/2/5 3/3/6 9/10/7 8/9/8
f 3/3/9 4/4/10 10/11/11 9/10/12
f 4/4/13 5/5/14 11/12/15 10/11/16
f 5/5/17 6/6/18 12/13/19 11/12/20
f 6/6/21 1/7/22 7/14/23 12/13/24
f 7/8/25 8/9/26 14/16/27 13/15/28
f 8/9/29 9/10/30 15/17/31 14/16/32
f 9/10/33 10/11/34 16/18/35 15/17/36
f 10/11/37 11/12/38 17/19/39 16/18/40
f 11/12/41 12/13/42 18/20/43 17/19/44
f 12/13/45 7/14/46 13/21/47 18/20/48
f 13/15/49 14/16/50 20/23/51 19/22/52
f 14/16/53 15/17/54 21/24/55 20/23/56
f 15/17/57 16/18/58 22/25/59 21/24/60
f 16/18/61 17/19/62 23/26/63 22/25/64
f 17/19/65 18/20/66 24/27/67 23/26/68
f 18/20/69 13/21/70 19/28/71 24/27/72
f 19/22/73 20/23/74 26/30/75 25/29/76
f 20/23/77 21/24/78 27/31/79 26/30/80
f 21/24/81 22/25/82 28/32/83 27/31/84
f 22/25/85 23/26/86 29/33/87 28/32/88
f 23/26/89 24/27/90 30/34/91 29/33/92
f 24/27/93 19/28/94 25/35/95 30/34/96
f 2/2/97 1/1/98 31/36/99
f 3/3/100 2/2/101 31/37/102
f 4/4/103 3/3/104 31/38/105
f 5/5/106 4/4/107 31/39/108
f 6/6/109 5/5/110 31/40/111
f 1/7/112 6/6/113 31/41/114
f 25/29/115 26/30/116 32/42/117
f 26/30/118 27/31/119 32/43/120
f 27/31/121 28/32/122 32/44/123
f 28/32/124 29/33/125 32/45/126
f 29/33/127 30/34/128 32/46/129
f 30/34/130 25/35/131 32/47/132
